<svg width="104" height="104" viewBox="0 0 104 104" fill="none" xmlns="http://www.w3.org/2000/svg">
<path d="M86.3333 52C86.3333 47.2203 82.4463 43.3333 77.6667 43.3333H73.3333V30.3333C73.3333 18.3863 63.6137 8.66666 51.6667 8.66666C39.7197 8.66666 30 18.3863 30 30.3333V43.3333H25.6667C20.887 43.3333 17 47.2203 17 52V86.6667C17 91.4463 20.887 95.3333 25.6667 95.3333H77.6667C82.4463 95.3333 86.3333 91.4463 86.3333 86.6667V52ZM38.6667 30.3333C38.6667 23.166 44.4993 17.3333 51.6667 17.3333C58.834 17.3333 64.6667 23.166 64.6667 30.3333V43.3333H38.6667V30.3333Z" fill="#609ED4"/>
</svg>
